<svg data-v-0dd9719b="" version="1.0" xmlns="http://www.w3.org/2000/svg" xmlns:xlink="http://www.w3.org/1999/xlink" width="100%" height="100%" viewBox="0 0 340.000000 250.000000" preserveAspectRatio="xMidYMid meet" color-interpolation-filters="sRGB" style="margin: auto;"> <rect data-v-0dd9719b="" x="0" y="0" width="100%" height="100%" fill="#fff" fill-opacity="1" class="background"></rect> <rect data-v-0dd9719b="" x="0" y="0" width="100%" height="100%" fill="url(#watermark)" fill-opacity="1" class="watermarklayer"></rect> <g data-v-0dd9719b="" fill="#333" class="icon-text-wrapper icon-svg-group iconsvg" transform="translate(49.579994201660156,99.01922607421875)"><g class="iconsvg-imagesvg" transform="translate(0,0)"><g><rect fill="#333" fill-opacity="0" stroke-width="2" x="0" y="0" width="60" height="51.96154845414393" class="image-rect"></rect> <svg x="0" y="0" width="60" height="51.96154845414393" filtersec="colorsb216689407" class="image-svg-svg primary" style="overflow: visible;"><svg xmlns="http://www.w3.org/2000/svg" viewBox="0 0 115.4699935913086 100"><g fill-rule="evenodd"><path d="M88.47 31.82a5.89 5.89 0 0 0 .45-2.27 6 6 0 1 0-6.37 5.94L98.83 63.7l-21 36.3h8.77l20.62-35.71zM28 43.46a6 6 0 0 0 5.31-8.66L49.05 7.56H91L86.6 0H45.37L27.12 31.61A6 6 0 0 0 28 43.46zM62.76 76.19a6 6 0 0 0-4.88 2.55H25.32l-21-36.3L0 50l20.62 35.71H58a6 6 0 1 0 4.77-9.52z" fill="#00a2e9"></path><path d="M94.85 14.29h-37a6 6 0 1 0 0 7h32.3l21 36.3 4.32-7.59zM87.18 56.23a6 6 0 0 0-5.08 9.06L66.42 92.44H24.5l4.37 7.56H70.1l18.49-32a6 6 0 0 0-1.41-11.75zM25.66 69.75a6 6 0 1 0 6.89-5.88L16.64 36.3 37.6 0h-8.73L8.25 35.71 26.32 67a6 6 0 0 0-.66 2.75z" fill="#096594"></path></g></svg></svg> <!----></g></g> <g transform="translate(67,5.750774383544922)"><g data-gra="path-name" fill-rule="" class="tp-name iconsvg-namesvg"><g transform="scale(1)"><g><path d="M24.72 2.05L13-13.77 5.65-13.77 5.65 2.05 3.65 2.05 3.65-33.15 15.64-33.15Q19.93-33.15 22.39-30.51 24.85-27.86 24.85-23.44L24.85-23.44Q24.85-19.06 22.39-16.42 19.93-13.77 15.64-13.77L15.64-13.77 15.46-13.77 27.32 2.05 24.72 2.05ZM5.65-31.19L5.65-15.73 15.64-15.73Q19.15-15.73 20.98-17.79 22.8-19.84 22.8-23.44L22.8-23.44Q22.8-27.04 20.96-29.12 19.11-31.19 15.64-31.19L15.64-31.19 5.65-31.19ZM54.45 2.05L50.16-9.67 35.07-9.67 30.78 2.05 28.73 2.05 41.82-33.15 43.55-33.15 56.69 2.05 54.45 2.05ZM35.8-11.67L49.44-11.67 42.64-30.33 35.8-11.67ZM63.07 0.09L84.6 0.09 84.6 2.05 60.33 2.05 60.33 0.55 81.63-31.19 61.47-31.19 61.47-33.15 84.37-33.15 84.37-31.69 63.07 0.09ZM113.92 2.05L109.63-9.67 94.54-9.67 90.25 2.05 88.2 2.05 101.29-33.15 103.02-33.15 116.15 2.05 113.92 2.05ZM95.27-11.67L108.9-11.67 102.11-30.33 95.27-11.67ZM143.79 2.05L139.5-9.67 124.41-9.67 120.12 2.05 118.07 2.05 131.16-33.15 132.89-33.15 146.02 2.05 143.79 2.05ZM125.14-11.67L138.77-11.67 131.98-30.33 125.14-11.67ZM170.1 0.59L170.1 0.59 174.8 6.8 172.34 6.8 168.37 1.55Q166.14 2.51 163.49 2.51L163.49 2.51Q159.39 2.51 156.22 0.18 153.05-2.14 151.27-6.27 149.49-10.4 149.49-15.55L149.49-15.55Q149.49-20.7 151.27-24.83 153.05-28.96 156.24-31.31 159.43-33.66 163.49-33.66L163.49-33.66Q167.55-33.66 170.74-31.31 173.93-28.96 175.71-24.83 177.49-20.7 177.49-15.55L177.49-15.55Q177.49-10.12 175.53-5.86 173.57-1.6 170.1 0.59ZM163.49 0.59L163.49 0.59Q167 0.59 169.74-1.44 172.48-3.47 173.98-7.14 175.49-10.81 175.49-15.55L175.49-15.55Q175.49-20.29 173.98-23.97 172.48-27.64 169.74-29.67 167-31.69 163.49-31.69L163.49-31.69Q159.98-31.69 157.27-29.67 154.55-27.64 153.05-23.97 151.54-20.29 151.54-15.55L151.54-15.55Q151.54-10.81 153.05-7.14 154.55-3.47 157.27-1.44 159.98 0.59 163.49 0.59Z" transform="translate(-3.6500000953674316, 33.65999984741211)"></path></g> <!----> <!----> <!----> <!----> <!----> <!----> <!----></g></g> <!----></g></g><defs v-gra="od"></defs></svg>